<?xml version="1.0" encoding="UTF-8"?>
<svg id="Ebene_1" data-name="Ebene 1" xmlns="http://www.w3.org/2000/svg" viewBox="0 0 1310.96 300">
  <defs>
    <style>
      .cls-1 {
        fill: #000;
        stroke-width: 0px;
      }
    </style>
  </defs>
  <g>
    <path class="cls-1" d="m47.88,284.8v-112.47c6.63,0,26.56,0,41.2-4.9,21.32-6.97,33.19-20.62,39.81-40.16,5.94-18.5,8.01-70.53-8.41-93.23C100.95,7.48,73,9.91,52.03,9.56H0v283.6h47.83v-8.36h.05Zm0-260.55c13.26,0,22.36,3.17,27.94,12.56,8.75,14.69,6.63,90.46,1.73,103.02-4.2,10.83-12.56,17.81-29.68,17.46,0,0,0-133.05,0-133.05Z"/>
    <polygon class="cls-1" points="207.83 152.4 207.83 9.56 160.35 9.56 160.35 293.16 207.83 293.16 207.83 152.4"/>
    <polygon class="cls-1" points="360.86 273.62 282.61 273.62 360.51 27.71 360.51 9.56 355.61 9.56 239.98 9.56 239.98 27.37 315.8 27.37 234.04 275.35 234.04 293.16 360.86 293.16 360.86 273.62"/>
  </g>
  <g>
    <polygon class="cls-1" points="560.8 209.46 498.63 11.08 459.16 11.08 459.16 294.68 477.32 294.68 477.32 91.05 540.53 294.68 578.96 294.68 578.96 11.08 560.8 11.08 560.8 209.46"/>
    <path class="cls-1" d="m681.34,11.08h-38.08l-48.57,283.6h21.32l16.77-110h30.37l17.11,110h47.83l-.69-4.9L681.29,11.08h.05Zm-46.79,155.8l13.6-96.74,13.6,96.74h-27.25.05Z"/>
    <path class="cls-1" d="m789.95,11.08h-41.89v283.6h45.06c14.34,0,41.55,1.38,57.97-12.91,23.74-20.97,28.64-62.17,30.02-77.9l2.42-86.26c-1.04-22.36-3.51-66.72-25.52-88.04-19.54-18.5-48.92-18.5-68.11-18.5h.05Zm43.67,201.2c0,49.61-8.75,66.72-37.74,66.72V24.04c27.25,0,37.74,14.34,37.74,63.9v124.34Z"/>
    <path class="cls-1" d="m963.5,244.03c0,6.63,1.38,35.61-9.45,42.24-2.77,1.73-4.85,1.73-7.67,0-8.36-5.24-7.32-36.7-7.32-44.02v-35.26h-45.06v12.22c0,21.32,0,59.75,28.98,75.43,12.56,6.97,41.2,8.36,59.7-3.17,28.29-16.42,28.29-46.1,28.29-68.8v-113.11h-47.48v134.48Z"/>
    <polygon class="cls-1" points="1031.01 294.68 1078.5 294.68 1078.5 153.92 1078.5 109.65 1031.01 109.65 1031.01 294.68"/>
    <polygon class="cls-1" points="1210.26 209.46 1148.09 11.08 1108.62 11.08 1108.62 294.68 1126.82 294.68 1126.82 91.05 1190.03 294.68 1228.41 294.68 1228.41 11.08 1210.26 11.08 1210.26 209.46"/>
    <polygon class="cls-1" points="1263.42 11.08 1263.42 294.68 1310.96 294.68 1310.96 153.92 1310.96 11.08 1263.42 11.08"/>
    <polygon class="cls-1" points="1030.52 48.82 972.6 0 909.99 63.85 930.96 81.56 963.5 48.32 1021.52 97.29 1078.64 39.02 1057.53 21.32 1030.52 48.82"/>
  </g>
</svg>
