<?xml version="1.0" encoding="UTF-8" standalone="no"?>
<!DOCTYPE svg PUBLIC "-//W3C//DTD SVG 1.1//EN" "http://www.w3.org/Graphics/SVG/1.1/DTD/svg11.dtd">
<svg width="100%" height="100%" viewBox="0 0 173 124" version="1.1" xmlns="http://www.w3.org/2000/svg" xmlns:xlink="http://www.w3.org/1999/xlink" xml:space="preserve" xmlns:serif="http://www.serif.com/" style="fill-rule:evenodd;clip-rule:evenodd;stroke-linejoin:round;stroke-miterlimit:2;">
    <g transform="matrix(0,1,-1,0,147.817885,-24.397885)">
        <path d="M80.05,88.51L57.31,88.51C57.31,87.17 57.31,83.14 56.32,80.18C54.91,75.87 52.15,73.47 48.2,72.13C44.46,70.93 33.94,70.51 29.35,73.83C23.98,77.78 24.47,83.43 24.4,87.67L24.4,98.19L81.74,98.19L81.74,88.52L80.05,88.51ZM27.37,88.51C27.37,85.83 28.01,83.99 29.91,82.86C32.88,81.09 48.2,81.52 50.74,82.51C52.93,83.36 54.34,85.05 54.27,88.51L27.37,88.51Z" style="fill:rgb(29,29,27);fill-rule:nonzero;"/>
    </g>
    <g transform="matrix(0,1,-1,0,147.817885,-24.397885)">
        <path d="M81.74,56.17L24.4,56.17L24.4,65.77L81.74,65.77L81.74,56.17Z" style="fill:rgb(29,29,27);fill-rule:nonzero;"/>
    </g>
    <g transform="matrix(0,1,-1,0,147.817885,-24.397885)">
        <path d="M77.79,25.23L77.79,41.05L28.07,25.3L24.4,25.3L24.4,49.67L28,49.67L28,34.34L78.14,50.87L81.74,50.87L81.74,25.23L77.79,25.23Z" style="fill:rgb(29,29,27);fill-rule:nonzero;"/>
    </g>
    <g transform="matrix(0,1,-1,0,147.817885,-24.397885)">
        <path d="M129.51,127.27L89.4,139.84L89.4,147.82L146.74,147.82L146.74,144.15L105.57,144.15L146.74,131.37L146.74,123.6L89.4,123.6L89.4,127.27L129.51,127.27Z" style="fill:rgb(29,29,27);fill-rule:nonzero;"/>
    </g>
    <g transform="matrix(0,1,-1,0,147.817885,-24.397885)">
        <path d="M89.4,102.9L89.4,110.6L146.74,120.42L146.74,116.11L124.5,112.72L124.5,106.58L146.74,103.12L146.74,93.45L145.75,93.59L89.4,102.91L89.4,102.9ZM120.9,112.36L101.34,109.61L120.9,106.86L120.9,112.37L120.9,112.36Z" style="fill:rgb(29,29,27);fill-rule:nonzero;"/>
    </g>
    <g transform="matrix(0,1,-1,0,147.817885,-24.397885)">
        <path d="M89.4,80.94L89.4,89.41L146.74,89.41L146.74,80.3C146.74,77.4 147.02,71.9 144.13,68.58C139.89,63.78 131.56,62.79 128.38,62.51L110.94,62.02C106.42,62.23 97.45,62.73 93.14,67.18C89.4,71.13 89.4,77.07 89.4,80.95L89.4,80.94ZM130.08,72.11C140.11,72.11 143.57,73.88 143.57,79.74L92.02,79.74C92.02,74.23 94.92,72.11 104.94,72.11L130.08,72.11Z" style="fill:rgb(29,29,27);fill-rule:nonzero;"/>
    </g>
    <g transform="matrix(0,1,-1,0,147.817885,-24.397885)">
        <path d="M136.5,45.85C137.84,45.85 143.7,45.57 145.04,47.76C145.39,48.32 145.39,48.74 145.04,49.31C143.98,51 137.62,50.79 136.14,50.79L129.01,50.79L129.01,59.9L131.48,59.9C135.79,59.9 143.56,59.9 146.73,54.04C148.14,51.5 148.42,45.71 146.09,41.97C142.77,36.25 136.77,36.25 132.18,36.25L109.31,36.25L109.31,45.85L136.5,45.85Z" style="fill:rgb(29,29,27);fill-rule:nonzero;"/>
    </g>
    <g transform="matrix(0,1,-1,0,147.817885,-24.397885)">
        <path d="M146.74,32.2L146.74,22.6L109.33,22.6L109.33,32.2L146.74,32.2Z" style="fill:rgb(29,29,27);fill-rule:nonzero;"/>
    </g>
    <g transform="matrix(0,1,-1,0,147.817885,-24.397885)">
        <path d="M129.51,-4.04L89.4,8.53L89.4,16.51L146.74,16.51L146.74,12.83L105.57,12.83L146.74,0.05L146.74,-7.71L89.4,-7.71L89.4,-4.04L129.51,-4.04Z" style="fill:rgb(29,29,27);fill-rule:nonzero;"/>
    </g>
    <g transform="matrix(0,1,-1,0,147.817885,-24.397885)">
        <path d="M89.4,-14.79L146.74,-14.79L146.74,-24.4L89.4,-24.4L89.4,-14.79Z" style="fill:rgb(29,29,27);fill-rule:nonzero;"/>
    </g>
    <g transform="matrix(0,1,-1,0,147.817885,-24.397885)">
        <path d="M97.03,32.3L87.16,44.01L100.07,56.67L103.65,52.43L96.93,45.85L106.83,34.12L95.05,22.57L91.47,26.84L97.03,32.3Z" style="fill:rgb(29,29,27);fill-rule:nonzero;"/>
    </g>
</svg>
